<?xml version="1.0" encoding="utf-8" standalone="no"?>
<!DOCTYPE svg PUBLIC "-//W3C//DTD SVG 1.1//EN"
  "http://www.w3.org/Graphics/SVG/1.1/DTD/svg11.dtd">
<svg xmlns:xlink="http://www.w3.org/1999/xlink" width="460.8pt" height="345.6pt" viewBox="0 0 460.8 345.6" xmlns="http://www.w3.org/2000/svg" version="1.1">
 <metadata>
  <rdf:RDF xmlns:dc="http://purl.org/dc/elements/1.1/" xmlns:cc="http://creativecommons.org/ns#" xmlns:rdf="http://www.w3.org/1999/02/22-rdf-syntax-ns#">
   <cc:Work>
    <dc:type rdf:resource="http://purl.org/dc/dcmitype/StillImage"/>
    <dc:date>2022-11-16T09:41:49.306233</dc:date>
    <dc:format>image/svg+xml</dc:format>
    <dc:creator>
     <cc:Agent>
      <dc:title>Matplotlib v3.6.2, https://matplotlib.org/</dc:title>
     </cc:Agent>
    </dc:creator>
   </cc:Work>
  </rdf:RDF>
 </metadata>
 <defs>
  <style type="text/css">*{stroke-linejoin: round; stroke-linecap: butt}</style>
 </defs>
 <g id="figure_1">
  <g id="patch_1">
   <path d="M 0 345.6 
L 460.8 345.6 
L 460.8 0 
L 0 0 
z
" style="fill: #ffffff"/>
  </g>
  <g id="axes_1">
   <g id="patch_2">
    <path d="M 57.6 307.584 
L 414.72 307.584 
L 414.72 41.472 
L 57.6 41.472 
z
" style="fill: #ffffff"/>
   </g>
   <g id="matplotlib.axis_1">
    <g id="xtick_1">
     <g id="line2d_1">
      <defs>
       <path id="mda3be50a6f" d="M 0 0 
L 0 3.5 
" style="stroke: #000000; stroke-width: 0.8"/>
      </defs>
      <g>
       <use xlink:href="#mda3be50a6f" x="73.832727" y="307.584" style="stroke: #000000; stroke-width: 0.8"/>
      </g>
     </g>
     <g id="text_1">
      <!-- 0 -->
      <g transform="translate(70.651477 322.182437) scale(0.1 -0.1)">
       <defs>
        <path id="DejaVuSans-30" d="M 2034 4250 
Q 1547 4250 1301 3770 
Q 1056 3291 1056 2328 
Q 1056 1369 1301 889 
Q 1547 409 2034 409 
Q 2525 409 2770 889 
Q 3016 1369 3016 2328 
Q 3016 3291 2770 3770 
Q 2525 4250 2034 4250 
z
M 2034 4750 
Q 2819 4750 3233 4129 
Q 3647 3509 3647 2328 
Q 3647 1150 3233 529 
Q 2819 -91 2034 -91 
Q 1250 -91 836 529 
Q 422 1150 422 2328 
Q 422 3509 836 4129 
Q 1250 4750 2034 4750 
z
" transform="scale(0.015625)"/>
       </defs>
       <use xlink:href="#DejaVuSans-30"/>
      </g>
     </g>
    </g>
    <g id="xtick_2">
     <g id="line2d_2">
      <g>
       <use xlink:href="#mda3be50a6f" x="138.781678" y="307.584" style="stroke: #000000; stroke-width: 0.8"/>
      </g>
     </g>
     <g id="text_2">
      <!-- 2 -->
      <g transform="translate(135.600428 322.182437) scale(0.1 -0.1)">
       <defs>
        <path id="DejaVuSans-32" d="M 1228 531 
L 3431 531 
L 3431 0 
L 469 0 
L 469 531 
Q 828 903 1448 1529 
Q 2069 2156 2228 2338 
Q 2531 2678 2651 2914 
Q 2772 3150 2772 3378 
Q 2772 3750 2511 3984 
Q 2250 4219 1831 4219 
Q 1534 4219 1204 4116 
Q 875 4013 500 3803 
L 500 4441 
Q 881 4594 1212 4672 
Q 1544 4750 1819 4750 
Q 2544 4750 2975 4387 
Q 3406 4025 3406 3419 
Q 3406 3131 3298 2873 
Q 3191 2616 2906 2266 
Q 2828 2175 2409 1742 
Q 1991 1309 1228 531 
z
" transform="scale(0.015625)"/>
       </defs>
       <use xlink:href="#DejaVuSans-32"/>
      </g>
     </g>
    </g>
    <g id="xtick_3">
     <g id="line2d_3">
      <g>
       <use xlink:href="#mda3be50a6f" x="203.730628" y="307.584" style="stroke: #000000; stroke-width: 0.8"/>
      </g>
     </g>
     <g id="text_3">
      <!-- 4 -->
      <g transform="translate(200.549378 322.182437) scale(0.1 -0.1)">
       <defs>
        <path id="DejaVuSans-34" d="M 2419 4116 
L 825 1625 
L 2419 1625 
L 2419 4116 
z
M 2253 4666 
L 3047 4666 
L 3047 1625 
L 3713 1625 
L 3713 1100 
L 3047 1100 
L 3047 0 
L 2419 0 
L 2419 1100 
L 313 1100 
L 313 1709 
L 2253 4666 
z
" transform="scale(0.015625)"/>
       </defs>
       <use xlink:href="#DejaVuSans-34"/>
      </g>
     </g>
    </g>
    <g id="xtick_4">
     <g id="line2d_4">
      <g>
       <use xlink:href="#mda3be50a6f" x="268.679579" y="307.584" style="stroke: #000000; stroke-width: 0.8"/>
      </g>
     </g>
     <g id="text_4">
      <!-- 6 -->
      <g transform="translate(265.498329 322.182437) scale(0.1 -0.1)">
       <defs>
        <path id="DejaVuSans-36" d="M 2113 2584 
Q 1688 2584 1439 2293 
Q 1191 2003 1191 1497 
Q 1191 994 1439 701 
Q 1688 409 2113 409 
Q 2538 409 2786 701 
Q 3034 994 3034 1497 
Q 3034 2003 2786 2293 
Q 2538 2584 2113 2584 
z
M 3366 4563 
L 3366 3988 
Q 3128 4100 2886 4159 
Q 2644 4219 2406 4219 
Q 1781 4219 1451 3797 
Q 1122 3375 1075 2522 
Q 1259 2794 1537 2939 
Q 1816 3084 2150 3084 
Q 2853 3084 3261 2657 
Q 3669 2231 3669 1497 
Q 3669 778 3244 343 
Q 2819 -91 2113 -91 
Q 1303 -91 875 529 
Q 447 1150 447 2328 
Q 447 3434 972 4092 
Q 1497 4750 2381 4750 
Q 2619 4750 2861 4703 
Q 3103 4656 3366 4563 
z
" transform="scale(0.015625)"/>
       </defs>
       <use xlink:href="#DejaVuSans-36"/>
      </g>
     </g>
    </g>
    <g id="xtick_5">
     <g id="line2d_5">
      <g>
       <use xlink:href="#mda3be50a6f" x="333.628529" y="307.584" style="stroke: #000000; stroke-width: 0.8"/>
      </g>
     </g>
     <g id="text_5">
      <!-- 8 -->
      <g transform="translate(330.447279 322.182437) scale(0.1 -0.1)">
       <defs>
        <path id="DejaVuSans-38" d="M 2034 2216 
Q 1584 2216 1326 1975 
Q 1069 1734 1069 1313 
Q 1069 891 1326 650 
Q 1584 409 2034 409 
Q 2484 409 2743 651 
Q 3003 894 3003 1313 
Q 3003 1734 2745 1975 
Q 2488 2216 2034 2216 
z
M 1403 2484 
Q 997 2584 770 2862 
Q 544 3141 544 3541 
Q 544 4100 942 4425 
Q 1341 4750 2034 4750 
Q 2731 4750 3128 4425 
Q 3525 4100 3525 3541 
Q 3525 3141 3298 2862 
Q 3072 2584 2669 2484 
Q 3125 2378 3379 2068 
Q 3634 1759 3634 1313 
Q 3634 634 3220 271 
Q 2806 -91 2034 -91 
Q 1263 -91 848 271 
Q 434 634 434 1313 
Q 434 1759 690 2068 
Q 947 2378 1403 2484 
z
M 1172 3481 
Q 1172 3119 1398 2916 
Q 1625 2713 2034 2713 
Q 2441 2713 2670 2916 
Q 2900 3119 2900 3481 
Q 2900 3844 2670 4047 
Q 2441 4250 2034 4250 
Q 1625 4250 1398 4047 
Q 1172 3844 1172 3481 
z
" transform="scale(0.015625)"/>
       </defs>
       <use xlink:href="#DejaVuSans-38"/>
      </g>
     </g>
    </g>
    <g id="xtick_6">
     <g id="line2d_6">
      <g>
       <use xlink:href="#mda3be50a6f" x="398.57748" y="307.584" style="stroke: #000000; stroke-width: 0.8"/>
      </g>
     </g>
     <g id="text_6">
      <!-- 10 -->
      <g transform="translate(392.21498 322.182437) scale(0.1 -0.1)">
       <defs>
        <path id="DejaVuSans-31" d="M 794 531 
L 1825 531 
L 1825 4091 
L 703 3866 
L 703 4441 
L 1819 4666 
L 2450 4666 
L 2450 531 
L 3481 531 
L 3481 0 
L 794 0 
L 794 531 
z
" transform="scale(0.015625)"/>
       </defs>
       <use xlink:href="#DejaVuSans-31"/>
       <use xlink:href="#DejaVuSans-30" x="63.623047"/>
      </g>
     </g>
    </g>
    <g id="text_7">
     <!-- Time (s) -->
     <g transform="translate(215.831094 335.860562) scale(0.1 -0.1)">
      <defs>
       <path id="DejaVuSans-54" d="M -19 4666 
L 3928 4666 
L 3928 4134 
L 2272 4134 
L 2272 0 
L 1638 0 
L 1638 4134 
L -19 4134 
L -19 4666 
z
" transform="scale(0.015625)"/>
       <path id="DejaVuSans-69" d="M 603 3500 
L 1178 3500 
L 1178 0 
L 603 0 
L 603 3500 
z
M 603 4863 
L 1178 4863 
L 1178 4134 
L 603 4134 
L 603 4863 
z
" transform="scale(0.015625)"/>
       <path id="DejaVuSans-6d" d="M 3328 2828 
Q 3544 3216 3844 3400 
Q 4144 3584 4550 3584 
Q 5097 3584 5394 3201 
Q 5691 2819 5691 2113 
L 5691 0 
L 5113 0 
L 5113 2094 
Q 5113 2597 4934 2840 
Q 4756 3084 4391 3084 
Q 3944 3084 3684 2787 
Q 3425 2491 3425 1978 
L 3425 0 
L 2847 0 
L 2847 2094 
Q 2847 2600 2669 2842 
Q 2491 3084 2119 3084 
Q 1678 3084 1418 2786 
Q 1159 2488 1159 1978 
L 1159 0 
L 581 0 
L 581 3500 
L 1159 3500 
L 1159 2956 
Q 1356 3278 1631 3431 
Q 1906 3584 2284 3584 
Q 2666 3584 2933 3390 
Q 3200 3197 3328 2828 
z
" transform="scale(0.015625)"/>
       <path id="DejaVuSans-65" d="M 3597 1894 
L 3597 1613 
L 953 1613 
Q 991 1019 1311 708 
Q 1631 397 2203 397 
Q 2534 397 2845 478 
Q 3156 559 3463 722 
L 3463 178 
Q 3153 47 2828 -22 
Q 2503 -91 2169 -91 
Q 1331 -91 842 396 
Q 353 884 353 1716 
Q 353 2575 817 3079 
Q 1281 3584 2069 3584 
Q 2775 3584 3186 3129 
Q 3597 2675 3597 1894 
z
M 3022 2063 
Q 3016 2534 2758 2815 
Q 2500 3097 2075 3097 
Q 1594 3097 1305 2825 
Q 1016 2553 972 2059 
L 3022 2063 
z
" transform="scale(0.015625)"/>
       <path id="DejaVuSans-20" transform="scale(0.015625)"/>
       <path id="DejaVuSans-28" d="M 1984 4856 
Q 1566 4138 1362 3434 
Q 1159 2731 1159 2009 
Q 1159 1288 1364 580 
Q 1569 -128 1984 -844 
L 1484 -844 
Q 1016 -109 783 600 
Q 550 1309 550 2009 
Q 550 2706 781 3412 
Q 1013 4119 1484 4856 
L 1984 4856 
z
" transform="scale(0.015625)"/>
       <path id="DejaVuSans-73" d="M 2834 3397 
L 2834 2853 
Q 2591 2978 2328 3040 
Q 2066 3103 1784 3103 
Q 1356 3103 1142 2972 
Q 928 2841 928 2578 
Q 928 2378 1081 2264 
Q 1234 2150 1697 2047 
L 1894 2003 
Q 2506 1872 2764 1633 
Q 3022 1394 3022 966 
Q 3022 478 2636 193 
Q 2250 -91 1575 -91 
Q 1294 -91 989 -36 
Q 684 19 347 128 
L 347 722 
Q 666 556 975 473 
Q 1284 391 1588 391 
Q 1994 391 2212 530 
Q 2431 669 2431 922 
Q 2431 1156 2273 1281 
Q 2116 1406 1581 1522 
L 1381 1569 
Q 847 1681 609 1914 
Q 372 2147 372 2553 
Q 372 3047 722 3315 
Q 1072 3584 1716 3584 
Q 2034 3584 2315 3537 
Q 2597 3491 2834 3397 
z
" transform="scale(0.015625)"/>
       <path id="DejaVuSans-29" d="M 513 4856 
L 1013 4856 
Q 1481 4119 1714 3412 
Q 1947 2706 1947 2009 
Q 1947 1309 1714 600 
Q 1481 -109 1013 -844 
L 513 -844 
Q 928 -128 1133 580 
Q 1338 1288 1338 2009 
Q 1338 2731 1133 3434 
Q 928 4138 513 4856 
z
" transform="scale(0.015625)"/>
      </defs>
      <use xlink:href="#DejaVuSans-54"/>
      <use xlink:href="#DejaVuSans-69" x="57.958984"/>
      <use xlink:href="#DejaVuSans-6d" x="85.742188"/>
      <use xlink:href="#DejaVuSans-65" x="183.154297"/>
      <use xlink:href="#DejaVuSans-20" x="244.677734"/>
      <use xlink:href="#DejaVuSans-28" x="276.464844"/>
      <use xlink:href="#DejaVuSans-73" x="315.478516"/>
      <use xlink:href="#DejaVuSans-29" x="367.578125"/>
     </g>
    </g>
   </g>
   <g id="matplotlib.axis_2">
    <g id="ytick_1">
     <g id="line2d_7">
      <defs>
       <path id="m2cdbcfa718" d="M 0 0 
L -3.5 0 
" style="stroke: #000000; stroke-width: 0.8"/>
      </defs>
      <g>
       <use xlink:href="#m2cdbcfa718" x="57.6" y="285.002303" style="stroke: #000000; stroke-width: 0.8"/>
      </g>
     </g>
     <g id="text_8">
      <!-- −1.0 -->
      <g transform="translate(26.317187 288.801522) scale(0.1 -0.1)">
       <defs>
        <path id="DejaVuSans-2212" d="M 678 2272 
L 4684 2272 
L 4684 1741 
L 678 1741 
L 678 2272 
z
" transform="scale(0.015625)"/>
        <path id="DejaVuSans-2e" d="M 684 794 
L 1344 794 
L 1344 0 
L 684 0 
L 684 794 
z
" transform="scale(0.015625)"/>
       </defs>
       <use xlink:href="#DejaVuSans-2212"/>
       <use xlink:href="#DejaVuSans-31" x="83.789062"/>
       <use xlink:href="#DejaVuSans-2e" x="147.412109"/>
       <use xlink:href="#DejaVuSans-30" x="179.199219"/>
      </g>
     </g>
    </g>
    <g id="ytick_2">
     <g id="line2d_8">
      <g>
       <use xlink:href="#m2cdbcfa718" x="57.6" y="247.553387" style="stroke: #000000; stroke-width: 0.8"/>
      </g>
     </g>
     <g id="text_9">
      <!-- −0.5 -->
      <g transform="translate(26.317187 251.352606) scale(0.1 -0.1)">
       <defs>
        <path id="DejaVuSans-35" d="M 691 4666 
L 3169 4666 
L 3169 4134 
L 1269 4134 
L 1269 2991 
Q 1406 3038 1543 3061 
Q 1681 3084 1819 3084 
Q 2600 3084 3056 2656 
Q 3513 2228 3513 1497 
Q 3513 744 3044 326 
Q 2575 -91 1722 -91 
Q 1428 -91 1123 -41 
Q 819 9 494 109 
L 494 744 
Q 775 591 1075 516 
Q 1375 441 1709 441 
Q 2250 441 2565 725 
Q 2881 1009 2881 1497 
Q 2881 1984 2565 2268 
Q 2250 2553 1709 2553 
Q 1456 2553 1204 2497 
Q 953 2441 691 2322 
L 691 4666 
z
" transform="scale(0.015625)"/>
       </defs>
       <use xlink:href="#DejaVuSans-2212"/>
       <use xlink:href="#DejaVuSans-30" x="83.789062"/>
       <use xlink:href="#DejaVuSans-2e" x="147.412109"/>
       <use xlink:href="#DejaVuSans-35" x="179.199219"/>
      </g>
     </g>
    </g>
    <g id="ytick_3">
     <g id="line2d_9">
      <g>
       <use xlink:href="#m2cdbcfa718" x="57.6" y="210.104471" style="stroke: #000000; stroke-width: 0.8"/>
      </g>
     </g>
     <g id="text_10">
      <!-- 0.0 -->
      <g transform="translate(34.696875 213.903689) scale(0.1 -0.1)">
       <use xlink:href="#DejaVuSans-30"/>
       <use xlink:href="#DejaVuSans-2e" x="63.623047"/>
       <use xlink:href="#DejaVuSans-30" x="95.410156"/>
      </g>
     </g>
    </g>
    <g id="ytick_4">
     <g id="line2d_10">
      <g>
       <use xlink:href="#m2cdbcfa718" x="57.6" y="172.655554" style="stroke: #000000; stroke-width: 0.8"/>
      </g>
     </g>
     <g id="text_11">
      <!-- 0.5 -->
      <g transform="translate(34.696875 176.454773) scale(0.1 -0.1)">
       <use xlink:href="#DejaVuSans-30"/>
       <use xlink:href="#DejaVuSans-2e" x="63.623047"/>
       <use xlink:href="#DejaVuSans-35" x="95.410156"/>
      </g>
     </g>
    </g>
    <g id="ytick_5">
     <g id="line2d_11">
      <g>
       <use xlink:href="#m2cdbcfa718" x="57.6" y="135.206638" style="stroke: #000000; stroke-width: 0.8"/>
      </g>
     </g>
     <g id="text_12">
      <!-- 1.0 -->
      <g transform="translate(34.696875 139.005857) scale(0.1 -0.1)">
       <use xlink:href="#DejaVuSans-31"/>
       <use xlink:href="#DejaVuSans-2e" x="63.623047"/>
       <use xlink:href="#DejaVuSans-30" x="95.410156"/>
      </g>
     </g>
    </g>
    <g id="ytick_6">
     <g id="line2d_12">
      <g>
       <use xlink:href="#m2cdbcfa718" x="57.6" y="97.757721" style="stroke: #000000; stroke-width: 0.8"/>
      </g>
     </g>
     <g id="text_13">
      <!-- 1.5 -->
      <g transform="translate(34.696875 101.55694) scale(0.1 -0.1)">
       <use xlink:href="#DejaVuSans-31"/>
       <use xlink:href="#DejaVuSans-2e" x="63.623047"/>
       <use xlink:href="#DejaVuSans-35" x="95.410156"/>
      </g>
     </g>
    </g>
    <g id="ytick_7">
     <g id="line2d_13">
      <g>
       <use xlink:href="#m2cdbcfa718" x="57.6" y="60.308805" style="stroke: #000000; stroke-width: 0.8"/>
      </g>
     </g>
     <g id="text_14">
      <!-- 2.0 -->
      <g transform="translate(34.696875 64.108024) scale(0.1 -0.1)">
       <use xlink:href="#DejaVuSans-32"/>
       <use xlink:href="#DejaVuSans-2e" x="63.623047"/>
       <use xlink:href="#DejaVuSans-30" x="95.410156"/>
      </g>
     </g>
    </g>
   </g>
   <g id="line2d_14">
    <path d="M 73.832727 228.45444 
L 74.103348 223.211591 
L 74.283762 222.837102 
L 74.373969 223.96057 
L 74.644589 221.339146 
L 75.005417 227.330972 
L 75.276037 223.211591 
L 75.456451 224.335059 
L 75.546658 224.335059 
L 75.817279 225.833015 
L 75.907485 225.458526 
L 75.997692 226.207505 
L 76.087899 225.458526 
L 76.268313 227.705461 
L 76.62914 225.084037 
L 76.719347 225.084037 
L 76.899761 223.96057 
L 76.989968 224.335059 
L 77.170382 226.581994 
L 77.350795 224.709548 
L 77.531209 228.828929 
L 77.892037 220.964656 
L 78.07245 224.709548 
L 78.162657 224.709548 
L 78.523485 222.088124 
L 78.703899 225.458526 
L 78.794105 225.084037 
L 79.064726 219.841189 
L 79.24514 219.841189 
L 79.335347 218.343232 
L 79.51576 212.351406 
L 79.786381 214.223851 
L 80.147209 208.981003 
L 80.237415 210.104471 
L 80.68845 206.734068 
L 80.95907 208.232025 
L 81.319898 213.849362 
L 81.410105 213.849362 
L 81.500312 213.474873 
L 81.680725 211.602427 
L 82.041553 215.721808 
L 82.13176 215.347319 
L 82.312174 217.594254 
L 82.492587 220.964656 
L 82.582794 220.590167 
L 82.853415 216.845276 
L 83.214242 219.4667 
L 83.755484 212.351406 
L 83.84569 213.100384 
L 84.206518 220.964656 
L 84.386932 207.483046 
L 84.657552 158.050477 
L 85.01838 81.280198 
L 85.108587 73.790415 
L 85.198794 81.280198 
L 85.740035 226.207505 
L 85.830242 224.335059 
L 86.010655 217.968743 
L 86.191069 219.841189 
L 86.371483 215.721808 
L 86.46169 216.096297 
L 86.822517 222.462613 
L 87.002931 222.837102 
L 87.183345 222.837102 
L 87.453965 225.084037 
L 87.634379 223.211591 
L 87.814793 220.590167 
L 87.995207 223.211591 
L 88.085414 222.837102 
L 88.175621 221.339146 
L 88.536448 224.335059 
L 88.807069 219.841189 
L 88.987482 222.088124 
L 89.34831 218.343232 
L 89.528724 219.092211 
L 89.618931 218.717721 
L 89.799344 216.470786 
L 90.069965 217.594254 
L 90.250379 216.470786 
L 90.430792 214.598341 
L 90.520999 215.347319 
L 91.152447 205.98509 
L 91.423068 202.989176 
L 91.513275 201.49122 
L 91.693689 205.610601 
L 91.783896 204.112644 
L 92.054516 197.746328 
L 92.144723 197.371839 
L 92.23493 196.248372 
L 92.415344 193.252458 
L 92.505551 192.50348 
L 92.595757 193.626947 
L 92.776171 191.380012 
L 92.866378 189.133077 
L 93.317412 192.50348 
L 93.407619 192.50348 
L 93.497826 191.380012 
L 93.588033 192.877969 
L 93.67824 191.754502 
L 94.039067 196.622861 
L 94.309688 205.236111 
L 94.490102 205.98509 
L 94.850929 216.470786 
L 95.031343 220.964656 
L 95.12155 220.590167 
L 95.301964 219.092211 
L 95.572584 225.084037 
L 95.662791 226.207505 
L 95.843205 225.084037 
L 95.933412 226.207505 
L 96.113826 230.326885 
L 96.294239 226.956483 
L 96.474653 228.828929 
L 96.745274 223.58608 
L 96.925687 225.833015 
L 97.015894 226.207505 
L 97.286515 225.458526 
L 97.466929 227.330972 
L 97.647342 228.45444 
L 98.098377 223.96057 
L 98.278791 223.211591 
L 98.459204 224.335059 
L 98.549411 224.335059 
L 98.639618 225.084037 
L 98.820032 219.841189 
L 98.910239 216.845276 
L 99.000446 217.219765 
L 99.180859 222.837102 
L 99.271066 222.088124 
L 99.541687 216.845276 
L 99.722101 218.717721 
L 99.902514 213.100384 
L 100.263342 219.092211 
L 100.443756 217.968743 
L 100.533962 218.343232 
L 100.714376 221.713635 
L 100.804583 222.088124 
L 100.89479 221.339146 
L 101.075204 224.335059 
L 101.255617 230.326885 
L 101.436031 235.569734 
L 101.616445 231.075864 
L 101.706652 231.450353 
L 101.977272 238.191158 
L 102.247893 233.322799 
L 102.3381 232.94831 
L 102.698927 236.318712 
L 102.879341 232.57382 
L 102.969548 234.071777 
L 103.149962 239.689115 
L 103.420582 229.577907 
L 103.691203 235.195245 
L 103.871617 234.446266 
L 103.961824 230.326885 
L 104.142237 206.734068 
L 104.773686 97.008743 
L 104.954099 145.317845 
L 105.22472 229.203418 
L 105.405134 234.820755 
L 105.495341 233.697288 
L 105.585548 234.446266 
L 105.675754 234.071777 
L 105.856168 229.577907 
L 106.216996 235.944223 
L 106.307203 236.318712 
L 106.577823 232.57382 
L 106.758237 237.06769 
L 107.028858 238.565647 
L 107.209271 236.318712 
L 107.570099 230.701375 
L 107.840719 235.944223 
L 108.021133 235.195245 
L 108.11134 235.195245 
L 108.291754 237.44218 
L 108.381961 236.318712 
L 108.562374 240.812582 
L 109.374236 231.450353 
L 109.55465 232.199331 
L 109.825271 230.701375 
L 110.005684 226.956483 
L 110.095891 226.207505 
L 110.186098 224.335059 
L 110.456719 213.100384 
L 110.727339 219.4667 
L 110.99796 215.347319 
L 111.178374 210.853449 
L 111.268581 211.602427 
L 111.448994 210.853449 
L 111.539201 212.351406 
L 111.629408 211.976916 
L 111.990236 201.865709 
L 112.170649 213.849362 
L 112.260856 219.841189 
L 112.351063 216.096297 
L 112.531477 200.742241 
L 112.621684 201.49122 
L 112.892304 211.976916 
L 112.982511 208.606514 
L 113.072718 208.981003 
L 113.343339 222.462613 
L 113.433546 222.462613 
L 113.613959 213.100384 
L 113.704166 216.470786 
L 114.064994 259.53704 
L 114.155201 256.166638 
L 114.425821 246.05543 
L 114.696442 236.693201 
L 114.876856 232.94831 
L 114.967063 234.071777 
L 115.057269 237.816669 
L 115.32789 264.405399 
L 115.598511 234.446266 
L 115.959338 245.306452 
L 116.049545 242.685028 
L 116.410373 209.355492 
L 116.7712 253.170724 
L 116.861407 252.047257 
L 117.312441 234.820755 
L 117.492855 241.187071 
L 117.583062 240.812582 
L 117.673269 241.187071 
L 117.853683 244.931963 
L 118.21451 233.322799 
L 118.304717 232.57382 
L 118.485131 226.207505 
L 118.575338 227.705461 
L 118.755751 240.063604 
L 118.845958 238.940136 
L 119.026372 230.701375 
L 119.116579 232.199331 
L 119.296993 237.44218 
L 119.477406 233.322799 
L 119.748027 237.816669 
L 119.928441 234.820755 
L 120.199061 241.93605 
L 120.289268 241.93605 
L 120.469682 255.792149 
L 120.650096 268.52478 
L 120.920716 259.911529 
L 121.10113 267.026824 
L 121.191337 265.154378 
L 121.461958 248.302365 
L 121.552164 250.174811 
L 121.822785 267.775802 
L 122.093406 253.545214 
L 122.273819 249.425833 
L 122.54444 262.158464 
L 122.905268 223.96057 
L 123.175888 178.272892 
L 123.536716 91.016916 
L 123.626923 85.774068 
L 123.807336 121.350539 
L 124.258371 244.931963 
L 124.619198 260.286019 
L 124.799612 263.656421 
L 124.980026 267.775802 
L 125.16044 266.652334 
L 125.250646 266.277845 
L 125.43106 268.150291 
L 125.521267 267.401313 
L 125.611474 265.528867 
L 125.701681 265.903356 
L 125.972301 271.146204 
L 126.152715 270.022737 
L 126.423336 271.895183 
L 126.693956 266.652334 
L 126.784163 267.401313 
L 127.144991 265.154378 
L 127.415611 273.767628 
L 127.505818 272.644161 
L 127.776439 265.903356 
L 127.956853 264.405399 
L 128.227473 260.286019 
L 128.498094 269.273759 
L 128.678508 265.528867 
L 128.858921 261.409486 
L 129.039335 260.286019 
L 129.400163 255.417659 
L 129.49037 256.166638 
L 129.670783 254.294192 
L 129.851197 251.672768 
L 130.031611 253.545214 
L 130.121818 252.796235 
L 130.663059 243.434006 
L 130.843473 241.187071 
L 131.023886 243.059517 
L 131.114093 242.310539 
L 131.474921 233.322799 
L 131.745541 239.314625 
L 132.106369 247.178898 
L 132.286783 245.680941 
L 132.467196 246.804409 
L 132.64761 247.553387 
L 133.008438 256.915616 
L 133.188851 257.664594 
L 133.549679 254.294192 
L 133.639886 254.668681 
L 133.910506 258.413573 
L 134.09092 258.788062 
L 134.181127 258.413573 
L 134.361541 258.788062 
L 134.541955 257.664594 
L 134.722368 255.792149 
L 134.812575 256.541127 
L 135.083196 259.911529 
L 135.173403 259.53704 
L 135.353816 256.541127 
L 135.53423 258.039084 
L 135.714644 255.792149 
L 135.895058 250.923789 
L 135.985265 252.796235 
L 136.165678 251.672768 
L 136.436299 246.42992 
L 136.616713 248.302365 
L 136.70692 247.927876 
L 136.887333 245.680941 
L 137.067747 248.676854 
L 137.157954 248.302365 
L 137.338368 246.804409 
L 137.518781 249.800322 
L 137.879609 256.166638 
L 138.060023 258.413573 
L 138.15023 258.413573 
L 138.330643 259.911529 
L 138.511057 258.039084 
L 138.601264 258.788062 
L 138.781678 262.158464 
L 138.871885 261.409486 
L 139.052298 257.290105 
L 139.322919 260.660508 
L 139.59354 259.162551 
L 139.773953 258.413573 
L 139.954367 258.788062 
L 140.134781 257.664594 
L 140.224988 256.915616 
L 140.405402 261.783975 
L 140.495608 259.162551 
L 140.766229 231.824842 
L 141.127057 153.182118 
L 141.30747 125.09543 
L 141.397677 130.712768 
L 141.938918 260.660508 
L 142.029125 261.034997 
L 142.209539 259.53704 
L 142.299746 259.911529 
L 142.48016 258.413573 
L 142.660573 259.53704 
L 142.840987 257.664594 
L 143.111608 263.281932 
L 143.201815 262.532954 
L 143.382228 257.664594 
L 143.472435 258.413573 
L 143.652849 261.783975 
L 143.743056 261.034997 
L 144.013677 257.290105 
L 144.19409 258.413573 
L 144.374504 257.664594 
L 144.464711 257.290105 
L 144.645125 257.664594 
L 144.735332 257.664594 
L 144.825538 256.915616 
L 145.096159 253.545214 
L 145.276573 255.417659 
L 145.456987 252.421746 
L 145.6374 251.672768 
L 146.088435 249.425833 
L 146.539469 246.42992 
L 146.81009 240.812582 
L 146.900297 241.187071 
L 146.990503 242.685028 
L 147.261124 237.44218 
L 147.531745 235.944223 
L 147.802365 226.956483 
L 147.892572 227.705461 
L 147.982779 229.577907 
L 148.072986 229.203418 
L 148.433813 224.335059 
L 148.52402 225.084037 
L 148.614227 224.709548 
L 148.794641 222.462613 
L 148.975055 223.58608 
L 149.245675 221.713635 
L 149.335882 222.088124 
L 149.426089 223.211591 
L 150.147744 241.187071 
L 150.237951 242.685028 
L 150.328158 241.93605 
L 150.508572 245.306452 
L 150.779192 250.174811 
L 150.869399 249.800322 
L 151.049813 248.676854 
L 151.320433 252.796235 
L 151.591054 251.298279 
L 151.771468 253.170724 
L 151.861675 253.170724 
L 152.132295 250.174811 
L 152.402916 252.796235 
L 152.58333 250.5493 
L 152.673537 251.298279 
L 152.763743 253.170724 
L 153.124571 246.804409 
L 153.395192 248.676854 
L 153.665812 240.812582 
L 153.756019 241.187071 
L 153.936433 242.310539 
L 154.207053 235.195245 
L 154.29726 234.446266 
L 154.567881 238.191158 
L 154.748295 235.944223 
L 154.838502 236.318712 
L 155.46995 244.182985 
L 155.650363 247.553387 
L 155.830777 244.182985 
L 155.920984 245.306452 
L 156.191605 248.302365 
L 156.281812 249.425833 
L 156.372018 248.302365 
L 156.642639 250.5493 
L 156.732846 250.923789 
L 156.91326 248.302365 
L 157.093673 257.664594 
L 157.274087 266.277845 
L 157.454501 267.026824 
L 157.544708 268.899269 
L 157.815329 258.039084 
L 158.176156 240.438093 
L 158.446777 211.602427 
L 158.988018 116.10769 
L 159.078225 124.346452 
L 159.709673 245.680941 
L 159.890087 253.170724 
L 159.980294 252.421746 
L 160.160707 248.302365 
L 160.341121 254.294192 
L 160.792155 267.775802 
L 160.882362 270.022737 
L 161.062776 268.150291 
L 161.24319 270.397226 
L 161.694224 280.508433 
L 161.874638 277.138031 
L 162.055052 278.635988 
L 162.145259 277.138031 
L 162.506086 261.409486 
L 162.596293 261.783975 
L 162.6865 260.660508 
L 162.866914 256.541127 
L 162.95712 256.541127 
L 163.317948 261.409486 
L 163.859189 234.071777 
L 164.039603 240.063604 
L 164.220017 236.693201 
L 164.490637 255.792149 
L 165.122085 209.355492 
L 165.212292 212.351406 
L 165.392706 220.215678 
L 165.663327 211.602427 
L 165.84374 213.474873 
L 166.024154 208.981003 
L 166.204568 202.240198 
L 166.294775 201.865709 
L 166.655602 192.128991 
L 167.28705 213.474873 
L 167.557671 224.709548 
L 167.738085 227.330972 
L 168.45974 240.438093 
L 168.73036 241.93605 
L 168.820567 241.56156 
L 169.000981 243.808495 
L 169.091188 244.557474 
L 169.361809 240.438093 
L 169.632429 244.182985 
L 169.90305 241.56156 
L 169.993257 239.689115 
L 170.17367 240.812582 
L 170.534498 234.446266 
L 170.714912 236.318712 
L 170.985532 226.956483 
L 171.075739 227.705461 
L 171.436567 236.318712 
L 171.526774 236.318712 
L 172.519049 273.01865 
L 172.609256 272.644161 
L 172.78967 269.273759 
L 172.970084 265.903356 
L 173.511325 269.648248 
L 173.601532 269.273759 
L 173.781945 266.277845 
L 174.954635 236.693201 
L 175.135049 217.594254 
L 175.766497 98.132211 
L 175.856704 104.873015 
L 176.307738 216.845276 
L 176.578359 219.092211 
L 176.758772 226.956483 
L 176.848979 226.581994 
L 176.939186 225.084037 
L 177.209807 237.816669 
L 177.300014 236.693201 
L 177.480427 233.697288 
L 177.570634 235.195245 
L 177.751048 240.812582 
L 178.021669 238.191158 
L 178.111876 238.940136 
L 178.382496 245.680941 
L 178.56291 244.557474 
L 178.743324 249.800322 
L 179.013944 256.541127 
L 179.104151 254.294192 
L 179.194358 254.668681 
L 179.284565 254.668681 
L 179.464979 257.664594 
L 179.555186 257.290105 
L 179.735599 256.166638 
L 179.916013 258.039084 
L 180.186634 253.170724 
L 180.276841 253.170724 
L 180.457254 254.668681 
L 180.547461 253.919703 
L 180.818082 249.051344 
L 181.088702 250.174811 
L 181.359323 245.680941 
L 181.44953 246.42992 
L 181.629944 244.182985 
L 181.900564 238.191158 
L 182.080978 239.314625 
L 182.351599 234.446266 
L 182.441806 234.820755 
L 182.622219 233.697288 
L 182.802633 230.326885 
L 182.89284 231.075864 
L 183.163461 240.438093 
L 183.253667 240.063604 
L 183.434081 234.446266 
L 183.524288 234.071777 
L 183.885116 242.685028 
L 183.975322 243.059517 
L 184.696977 258.039084 
L 184.787184 257.664594 
L 185.148012 252.047257 
L 185.238219 252.421746 
L 185.77946 239.689115 
L 185.869667 239.314625 
L 186.410908 231.824842 
L 186.501115 232.94831 
L 186.771736 229.577907 
L 186.861942 229.577907 
L 186.952149 229.952396 
L 187.132563 227.705461 
L 187.403184 221.713635 
L 187.944425 209.355492 
L 188.034632 210.47896 
L 188.305252 212.725895 
L 188.485666 217.594254 
L 188.66608 223.58608 
L 188.846494 223.58608 
L 189.297528 243.808495 
L 189.387735 243.808495 
L 189.477942 244.182985 
L 189.748562 250.5493 
L 189.838769 249.800322 
L 190.019183 245.680941 
L 190.289804 248.676854 
L 190.470217 245.680941 
L 190.560424 246.42992 
L 190.740838 249.051344 
L 190.831045 247.927876 
L 191.462493 252.796235 
L 191.5527 255.417659 
L 191.642907 254.668681 
L 191.823321 243.434006 
L 192.093941 197.371839 
L 192.544976 103.00057 
L 192.635183 99.255678 
L 192.725389 111.98831 
L 193.266631 252.796235 
L 193.537251 262.158464 
L 193.807872 258.788062 
L 193.988286 259.911529 
L 194.258906 256.166638 
L 194.349113 256.541127 
L 194.529527 258.788062 
L 195.070768 249.800322 
L 195.431596 244.931963 
L 195.521803 244.931963 
L 195.612009 245.306452 
L 195.702216 244.931963 
L 195.972837 241.187071 
L 196.063044 241.56156 
L 196.153251 241.56156 
L 196.333664 242.310539 
L 196.514078 239.689115 
L 196.604285 240.063604 
L 196.784699 235.944223 
L 196.965113 232.94831 
L 197.235733 237.44218 
L 197.416147 234.071777 
L 197.506354 231.450353 
L 197.686768 232.94831 
L 197.867181 237.816669 
L 198.047595 237.06769 
L 198.228009 241.187071 
L 198.318216 240.812582 
L 198.408423 240.438093 
L 198.76925 246.05543 
L 198.949664 244.557474 
L 199.220284 239.689115 
L 199.400698 240.438093 
L 199.671319 236.318712 
L 199.851733 233.322799 
L 199.941939 233.322799 
L 200.122353 234.071777 
L 200.21256 232.94831 
L 200.483181 234.446266 
L 200.844008 229.203418 
L 201.114629 232.57382 
L 201.295043 237.44218 
L 201.65587 243.434006 
L 201.926491 238.565647 
L 202.197111 241.93605 
L 202.648146 237.44218 
L 203.008973 229.952396 
L 203.09918 229.577907 
L 203.279594 225.084037 
L 203.460008 223.211591 
L 203.550214 222.837102 
L 203.911042 224.335059 
L 204.181663 220.590167 
L 204.452283 207.483046 
L 204.54249 206.734068 
L 204.813111 215.347319 
L 204.903318 214.223851 
L 205.173938 217.219765 
L 205.354352 220.590167 
L 205.444559 220.590167 
L 205.534766 219.841189 
L 205.715179 220.964656 
L 205.895593 225.084037 
L 205.9858 225.833015 
L 206.166214 225.084037 
L 206.256421 225.458526 
L 206.436834 229.577907 
L 206.527041 229.577907 
L 206.707455 225.084037 
L 206.797662 226.207505 
L 206.887869 225.833015 
L 207.068283 227.330972 
L 207.42911 222.462613 
L 207.519317 222.837102 
L 207.609524 222.088124 
L 207.699731 222.462613 
L 207.880144 222.088124 
L 207.970351 222.837102 
L 208.150765 225.833015 
L 208.240972 226.581994 
L 208.511593 210.47896 
L 208.782213 170.03413 
L 209.143041 102.251591 
L 209.233248 97.757721 
L 209.413661 135.206638 
L 209.774489 220.964656 
L 210.04511 228.828929 
L 210.225523 233.322799 
L 210.31573 233.322799 
L 210.496144 235.569734 
L 210.766765 240.063604 
L 210.856971 240.063604 
L 211.217799 232.199331 
L 211.308006 232.94831 
L 211.398213 232.94831 
L 211.578626 231.075864 
L 211.668833 231.075864 
L 211.939454 232.199331 
L 212.480695 224.709548 
L 212.841523 211.227938 
L 213.20235 196.99735 
L 213.472971 180.894316 
L 213.563178 181.643294 
L 213.743591 188.758588 
L 214.014212 183.141251 
L 214.465246 200.367752 
L 214.555453 199.618774 
L 214.826074 184.639207 
L 214.916281 185.013697 
L 215.277108 204.861622 
L 215.547729 214.223851 
L 215.728143 213.100384 
L 215.81835 214.598341 
L 215.908556 219.4667 
L 215.998763 219.092211 
L 216.269384 210.104471 
L 216.540005 204.487133 
L 216.720418 210.104471 
L 216.900832 209.729981 
L 216.991039 207.483046 
L 217.081246 208.232025 
L 217.351866 216.096297 
L 217.622487 220.964656 
L 217.712694 220.215678 
L 217.893108 222.088124 
L 217.983315 221.713635 
L 218.253935 220.590167 
L 218.344142 220.964656 
L 218.434349 220.590167 
L 218.524556 219.4667 
L 218.614763 219.841189 
L 218.70497 221.713635 
L 219.065797 236.318712 
L 219.246211 235.569734 
L 219.336418 235.944223 
L 219.516831 237.816669 
L 219.607038 237.816669 
L 219.787452 234.820755 
L 219.967866 236.318712 
L 220.058073 235.944223 
L 220.238486 231.450353 
L 220.328693 231.450353 
L 220.689521 232.94831 
L 220.869935 230.701375 
L 221.050348 231.824842 
L 221.140555 231.450353 
L 221.411176 226.207505 
L 221.772003 220.964656 
L 221.86221 220.964656 
L 221.952417 221.339146 
L 222.132831 225.458526 
L 222.223038 225.084037 
L 222.313245 224.709548 
L 222.403451 223.211591 
L 222.583865 229.577907 
L 222.854486 236.318712 
L 222.944693 237.06769 
L 223.215313 244.182985 
L 223.30552 243.808495 
L 223.395727 241.93605 
L 223.666348 244.182985 
L 223.936968 238.565647 
L 224.027175 239.314625 
L 224.207589 243.808495 
L 224.297796 244.557474 
L 224.47821 248.302365 
L 224.568416 248.302365 
L 224.74883 246.804409 
L 224.929244 246.804409 
L 225.109658 245.680941 
L 225.199865 244.557474 
L 225.290071 244.931963 
L 225.380278 243.808495 
L 225.650899 225.833015 
L 225.831313 207.108557 
L 226.372554 117.980136 
L 226.462761 128.091344 
L 227.004002 238.940136 
L 227.274623 239.689115 
L 227.545243 237.816669 
L 227.725657 240.063604 
L 227.815864 238.565647 
L 227.996278 239.314625 
L 228.086485 238.565647 
L 228.357105 232.94831 
L 228.447312 232.57382 
L 228.717933 235.195245 
L 228.898347 234.071777 
L 228.988553 234.446266 
L 229.168967 235.944223 
L 229.259174 235.944223 
L 229.439588 234.071777 
L 229.529795 235.195245 
L 229.800415 242.310539 
L 229.980829 238.191158 
L 230.071036 238.940136 
L 230.341657 243.059517 
L 230.431863 243.808495 
L 230.882898 250.923789 
L 231.243725 241.93605 
L 231.333932 241.56156 
L 231.424139 242.310539 
L 231.69476 239.689115 
L 231.784967 241.56156 
L 231.875173 241.187071 
L 231.96538 240.812582 
L 232.145794 236.693201 
L 232.236001 237.06769 
L 232.506622 235.569734 
L 232.777242 232.199331 
L 233.047863 233.697288 
L 233.13807 234.820755 
L 233.228277 234.446266 
L 233.40869 232.57382 
L 233.589104 233.322799 
L 233.949932 226.207505 
L 234.220552 219.092211 
L 234.310759 219.4667 
L 234.400966 218.717721 
L 234.761793 231.075864 
L 234.942207 229.203418 
L 235.212828 240.438093 
L 235.303035 239.689115 
L 235.393242 241.56156 
L 235.483448 240.438093 
L 235.754069 247.927876 
L 235.934483 251.672768 
L 236.02469 251.672768 
L 236.205103 253.170724 
L 236.29531 255.417659 
L 236.656138 250.923789 
L 236.836552 252.047257 
L 237.377793 261.783975 
L 237.558207 254.294192 
L 237.73862 248.676854 
L 237.919034 251.298279 
L 238.099448 250.174811 
L 238.189655 249.425833 
L 238.460275 250.5493 
L 238.640689 248.676854 
L 238.91131 252.047257 
L 239.001517 251.672768 
L 239.18193 253.545214 
L 239.272137 253.170724 
L 239.362344 254.294192 
L 239.632965 262.158464 
L 239.723172 261.783975 
L 239.903585 264.03091 
L 239.993792 263.656421 
L 240.264413 258.039084 
L 240.35462 259.911529 
L 240.535033 268.52478 
L 240.62524 267.026824 
L 240.895861 256.915616 
L 240.986068 256.915616 
L 241.076275 257.664594 
L 241.346895 267.026824 
L 241.527309 266.652334 
L 241.617516 267.401313 
L 241.79793 266.652334 
L 242.06855 263.281932 
L 242.158757 263.656421 
L 242.519585 271.146204 
L 242.699998 265.154378 
L 242.880412 244.557474 
L 243.421653 151.684161 
L 243.602067 189.882056 
L 243.872688 266.652334 
L 243.962895 272.269672 
L 244.143308 270.397226 
L 244.323722 271.520693 
L 244.504136 263.656421 
L 244.68455 258.039084 
L 244.95517 272.644161 
L 245.045377 272.269672 
L 245.135584 270.022737 
L 245.225791 270.771715 
L 245.315998 270.397226 
L 245.496412 274.142118 
L 245.586619 273.767628 
L 245.857239 279.384966 
L 246.037653 281.631901 
L 246.12786 281.631901 
L 246.218067 280.508433 
L 246.308274 280.882923 
L 246.578894 287.998217 
L 246.669101 288.747195 
L 246.849515 286.874749 
L 246.939722 286.874749 
L 247.120135 282.380879 
L 247.300549 276.763542 
L 247.480963 279.010477 
L 247.57117 280.133944 
L 247.661377 279.384966 
L 247.84179 274.516607 
L 248.022204 276.389053 
L 248.112411 276.014563 
L 248.473239 270.397226 
L 248.653652 272.644161 
L 248.743859 273.01865 
L 249.104687 261.783975 
L 249.375307 266.652334 
L 249.465514 266.277845 
L 249.645928 264.405399 
L 249.826342 263.281932 
L 250.006755 259.53704 
L 250.096962 259.911529 
L 250.187169 261.034997 
L 250.277376 260.660508 
L 250.638204 253.919703 
L 250.72841 253.545214 
L 250.818617 255.417659 
L 250.999031 250.923789 
L 251.179445 250.174811 
L 251.450065 251.672768 
L 251.630479 248.676854 
L 251.9011 253.170724 
L 252.081514 255.792149 
L 252.261927 254.294192 
L 252.532548 259.911529 
L 252.712962 259.911529 
L 253.073789 271.520693 
L 253.254203 270.397226 
L 253.61503 274.142118 
L 253.705237 273.393139 
L 253.885651 277.51252 
L 254.066065 280.508433 
L 254.156272 280.133944 
L 254.336685 277.138031 
L 254.426892 277.138031 
L 254.607306 279.384966 
L 254.697513 278.635988 
L 254.968134 274.142118 
L 255.05834 274.891096 
L 255.148547 276.763542 
L 255.238754 275.640074 
L 255.509375 265.528867 
L 255.599582 266.652334 
L 255.870202 275.265585 
L 255.960409 274.142118 
L 256.140823 273.393139 
L 256.23103 274.891096 
L 256.321237 274.516607 
L 256.50165 273.393139 
L 256.772271 283.504347 
L 256.862478 282.755368 
L 257.042892 280.882923 
L 257.133099 280.882923 
L 257.223305 281.257412 
L 257.313512 280.508433 
L 257.584133 276.389053 
L 257.854754 279.759455 
L 257.94496 278.635988 
L 258.215581 273.767628 
L 258.486202 272.644161 
L 258.576409 273.767628 
L 258.666615 277.138031 
L 259.207857 271.520693 
L 259.298064 270.771715 
L 259.38827 268.899269 
L 259.658891 238.191158 
L 260.109925 157.301498 
L 260.200132 165.914749 
L 260.741374 295.488 
L 261.011994 283.504347 
L 261.102201 283.504347 
L 261.282615 282.00639 
L 261.463029 280.882923 
L 261.553235 281.257412 
L 261.733649 283.878836 
L 261.823856 282.755368 
L 261.914063 283.504347 
L 262.094477 286.125771 
L 262.365097 288.372706 
L 262.725925 283.129858 
L 262.906339 281.631901 
L 262.996546 279.384966 
L 263.086752 279.759455 
L 263.176959 280.508433 
L 263.537787 276.763542 
L 263.718201 273.767628 
L 263.898614 275.640074 
L 264.079028 272.269672 
L 264.169235 272.644161 
L 264.439856 276.014563 
L 264.530062 275.640074 
L 264.710476 273.767628 
L 264.981097 279.010477 
L 265.071304 278.261498 
L 265.161511 278.635988 
L 265.341924 281.257412 
L 265.432131 281.257412 
L 265.792959 270.771715 
L 265.973372 272.644161 
L 266.063579 271.895183 
L 266.3342 264.779889 
L 266.424407 265.154378 
L 266.604821 267.401313 
L 266.875441 259.911529 
L 266.965648 259.53704 
L 267.055855 260.286019 
L 267.236269 256.915616 
L 267.416682 253.170724 
L 267.597096 255.417659 
L 267.687303 255.417659 
L 268.138337 250.923789 
L 268.589372 256.166638 
L 268.679579 256.166638 
L 268.769786 257.290105 
L 268.859992 256.915616 
L 268.950199 257.664594 
L 269.311027 265.903356 
L 269.491441 265.154378 
L 269.671854 266.277845 
L 269.762061 266.277845 
L 269.852268 267.026824 
L 270.122889 260.660508 
L 270.303302 262.907443 
L 270.393509 262.158464 
L 270.573923 259.53704 
L 270.66413 260.660508 
L 270.754337 263.281932 
L 270.844544 262.907443 
L 271.115164 259.162551 
L 271.295578 255.04317 
L 271.475992 253.545214 
L 271.656406 249.051344 
L 271.836819 247.927876 
L 271.927026 248.302365 
L 272.197647 241.56156 
L 272.468267 245.306452 
L 272.558474 244.557474 
L 272.829095 239.689115 
L 273.099716 244.557474 
L 273.189922 244.182985 
L 273.280129 242.310539 
L 273.370336 243.434006 
L 273.640957 250.923789 
L 273.731164 250.5493 
L 273.911577 249.051344 
L 274.182198 249.800322 
L 274.543026 248.302365 
L 274.723439 250.5493 
L 274.813646 250.923789 
L 274.903853 250.5493 
L 275.264681 253.919703 
L 275.535301 249.425833 
L 275.625508 249.425833 
L 275.896129 253.545214 
L 275.986336 251.298279 
L 276.256956 225.833015 
L 276.888404 123.597474 
L 277.068818 163.667814 
L 277.429646 245.306452 
L 277.519852 246.05543 
L 277.700266 243.808495 
L 277.88068 246.804409 
L 278.151301 243.059517 
L 278.241507 243.434006 
L 278.512128 248.302365 
L 278.692542 246.42992 
L 278.963162 249.425833 
L 279.143576 246.42992 
L 279.32399 241.93605 
L 279.594611 244.557474 
L 279.865231 239.689115 
L 280.045645 241.56156 
L 280.316266 237.06769 
L 280.406473 237.06769 
L 280.586886 237.44218 
L 280.7673 234.071777 
L 280.857507 231.824842 
L 281.037921 232.94831 
L 281.128128 232.57382 
L 281.488955 225.084037 
L 281.759576 220.964656 
L 282.030196 214.97283 
L 282.120403 216.470786 
L 282.300817 220.590167 
L 282.391024 219.4667 
L 282.571438 214.223851 
L 282.842058 220.215678 
L 283.383299 204.112644 
L 283.563713 202.240198 
L 283.744127 207.108557 
L 283.834334 207.108557 
L 284.104954 199.993263 
L 284.375575 206.734068 
L 284.465782 206.734068 
L 284.555989 205.98509 
L 284.646196 207.108557 
L 284.916816 214.223851 
L 285.007023 214.598341 
L 285.277644 219.092211 
L 285.728678 229.577907 
L 285.909092 229.577907 
L 285.999299 229.952396 
L 286.089506 229.203418 
L 286.179713 229.952396 
L 286.269919 228.828929 
L 286.450333 230.701375 
L 286.54054 232.199331 
L 286.991574 226.207505 
L 287.171988 229.577907 
L 287.262195 229.203418 
L 287.442609 225.084037 
L 287.713229 229.203418 
L 287.98385 223.211591 
L 288.164264 224.335059 
L 288.254471 222.837102 
L 288.525091 213.100384 
L 288.705505 216.470786 
L 288.795712 215.721808 
L 289.066333 206.734068 
L 289.336953 211.602427 
L 289.42716 211.227938 
L 289.517367 210.47896 
L 289.607574 211.602427 
L 289.968401 219.092211 
L 290.058608 217.968743 
L 290.87047 232.94831 
L 290.960677 232.94831 
L 291.231298 227.705461 
L 291.501918 231.450353 
L 291.772539 225.084037 
L 291.862746 225.458526 
L 292.133366 231.075864 
L 292.223573 229.952396 
L 292.31378 227.330972 
L 292.584401 198.495307 
L 293.125642 82.403666 
L 293.215849 89.51896 
L 293.847297 212.351406 
L 294.027711 216.096297 
L 294.117918 215.721808 
L 294.208124 216.096297 
L 294.388538 210.853449 
L 294.478745 211.602427 
L 294.839573 217.968743 
L 295.019986 214.97283 
L 295.2004 216.845276 
L 295.290607 216.845276 
L 295.741641 212.351406 
L 295.922055 210.853449 
L 296.192676 208.606514 
L 296.373089 209.355492 
L 296.463296 208.606514 
L 296.733917 205.236111 
L 296.824124 205.236111 
L 296.914331 205.610601 
L 297.094744 203.363666 
L 297.184951 203.738155 
L 297.275158 204.861622 
L 297.635986 194.750415 
L 297.8164 197.746328 
L 298.357641 188.384099 
L 298.538055 189.882056 
L 298.808675 185.388186 
L 298.898882 186.511653 
L 298.989089 185.388186 
L 299.079296 185.762675 
L 299.349916 180.894316 
L 299.620537 182.766762 
L 299.710744 182.392272 
L 299.981365 176.774935 
L 300.071571 177.898402 
L 300.251985 174.902489 
L 300.432399 171.906576 
L 300.522606 172.281065 
L 300.612813 175.651467 
L 300.70302 174.902489 
L 301.063847 168.161684 
L 301.154054 167.787195 
L 301.334468 170.783108 
L 301.514881 167.412706 
L 301.605088 168.161684 
L 301.875709 175.651467 
L 301.965916 175.276978 
L 302.14633 176.025957 
L 302.41695 180.894316 
L 302.507157 180.145337 
L 302.597364 180.519827 
L 302.687571 182.017783 
L 302.867985 186.886142 
L 302.958191 187.260632 
L 303.048398 186.137164 
L 303.228812 188.00961 
L 303.319019 188.758588 
L 303.409226 188.384099 
L 303.58964 184.264718 
L 303.950467 180.894316 
L 304.221088 178.647381 
L 304.311295 179.02187 
L 304.401501 178.647381 
L 304.581915 174.528 
L 304.762329 168.910663 
L 305.03295 175.276978 
L 305.30357 170.783108 
L 305.574191 176.400446 
L 305.844811 175.651467 
L 306.115432 185.762675 
L 306.386053 182.766762 
L 306.566466 184.639207 
L 306.656673 186.137164 
L 306.927294 183.890229 
L 307.107708 186.886142 
L 307.197915 186.886142 
L 307.288121 186.511653 
L 307.468535 183.141251 
L 307.558742 184.639207 
L 307.739156 188.00961 
L 307.91957 183.141251 
L 308.009776 183.890229 
L 308.280397 197.746328 
L 308.370604 194.750415 
L 308.641225 162.918836 
L 308.911845 99.630167 
L 309.092259 63.304718 
L 309.182466 67.424099 
L 309.723707 179.02187 
L 309.813914 180.519827 
L 310.174741 176.774935 
L 310.264948 177.523913 
L 310.445362 179.396359 
L 310.535569 179.02187 
L 310.715983 177.149424 
L 311.07681 183.890229 
L 311.167017 182.017783 
L 311.257224 182.392272 
L 311.527845 186.886142 
L 311.618051 185.762675 
L 311.708258 183.141251 
L 311.978879 186.886142 
L 312.069086 186.511653 
L 312.159293 185.762675 
L 312.339706 182.766762 
L 312.52012 186.886142 
L 312.610327 186.137164 
L 312.971155 180.519827 
L 313.061361 181.268805 
L 313.422189 176.025957 
L 313.602603 177.898402 
L 313.69281 177.523913 
L 313.873223 174.902489 
L 314.143844 177.523913 
L 314.324258 173.030043 
L 314.504671 168.161684 
L 314.594878 168.161684 
L 314.685085 169.285152 
L 315.13612 162.918836 
L 315.226327 163.667814 
L 315.40674 163.667814 
L 315.947982 155.803542 
L 316.128395 153.931096 
L 316.218602 153.931096 
L 316.399016 155.429053 
L 316.669637 152.05865 
L 316.759843 152.05865 
L 317.030464 157.675988 
L 317.301085 161.04639 
L 317.571705 168.536173 
L 317.661912 168.161684 
L 318.02274 172.281065 
L 318.203153 170.03413 
L 318.473774 172.281065 
L 318.654188 173.030043 
L 318.924808 168.910663 
L 319.015015 169.285152 
L 319.105222 170.408619 
L 319.375843 165.914749 
L 319.556257 168.536173 
L 319.646463 166.663728 
L 319.917084 157.301498 
L 320.007291 156.927009 
L 320.097498 158.050477 
L 320.187705 157.675988 
L 320.277912 158.050477 
L 320.368118 157.301498 
L 320.548532 159.548433 
L 320.728946 163.667814 
L 320.819153 163.293325 
L 320.999567 166.289238 
L 321.270187 174.528 
L 321.360394 173.779022 
L 321.631015 168.910663 
L 321.901635 173.779022 
L 322.082049 174.528 
L 322.35267 179.396359 
L 322.442877 179.02187 
L 322.62329 172.281065 
L 322.713497 173.030043 
L 322.893911 178.647381 
L 323.074325 177.523913 
L 323.344945 185.388186 
L 323.615566 189.507567 
L 323.705773 186.137164 
L 323.886187 166.289238 
L 324.517635 65.926142 
L 324.607842 75.662861 
L 325.058876 183.141251 
L 325.149083 183.890229 
L 325.329497 177.898402 
L 325.419703 178.272892 
L 325.50991 177.898402 
L 325.780531 174.153511 
L 326.051152 175.651467 
L 326.321772 171.532087 
L 326.502186 174.528 
L 326.592393 173.779022 
L 326.6826 173.404533 
L 327.133634 164.791282 
L 327.223841 165.165771 
L 327.314048 167.412706 
L 327.404255 166.289238 
L 327.494462 167.787195 
L 327.584668 167.412706 
L 327.765082 170.783108 
L 327.855289 170.03413 
L 328.035703 166.289238 
L 328.12591 166.289238 
L 328.306323 168.161684 
L 328.39653 168.536173 
L 328.667151 165.165771 
L 328.757358 165.54026 
L 328.847565 167.787195 
L 329.118185 164.791282 
L 329.298599 164.791282 
L 329.388806 164.042303 
L 329.659427 156.927009 
L 329.749633 157.675988 
L 329.83984 157.675988 
L 329.930047 158.050477 
L 330.020254 157.301498 
L 330.200668 153.556607 
L 330.381082 151.684161 
L 330.561495 151.684161 
L 330.741909 149.437226 
L 330.832116 147.939269 
L 330.922323 148.313759 
L 331.102737 147.190291 
L 331.28315 144.943356 
L 331.463564 144.194378 
L 331.553771 144.943356 
L 331.824392 140.074997 
L 331.914598 140.449486 
L 332.004805 141.572954 
L 332.095012 141.198464 
L 332.275426 141.947443 
L 332.45584 138.57704 
L 332.72646 141.572954 
L 332.816667 138.951529 
L 332.906874 139.700508 
L 333.177495 145.317845 
L 333.267702 145.692334 
L 333.538322 150.186204 
L 333.718736 152.433139 
L 333.808943 151.684161 
L 334.259977 158.050477 
L 334.350184 156.927009 
L 334.530598 158.424966 
L 334.620805 158.799455 
L 334.891425 161.420879 
L 334.981632 160.671901 
L 335.162046 161.795368 
L 335.252253 160.671901 
L 335.61308 152.433139 
L 336.154322 142.696421 
L 336.334735 147.190291 
L 336.424942 149.062737 
L 336.515149 148.688248 
L 336.695563 147.190291 
L 336.78577 147.939269 
L 337.05639 153.182118 
L 337.327011 156.178031 
L 337.597632 162.544347 
L 337.958459 161.04639 
L 338.138873 161.795368 
L 338.22908 161.795368 
L 338.589907 165.165771 
L 338.860528 163.293325 
L 339.221355 167.787195 
L 339.401769 171.157598 
L 339.582183 176.400446 
L 339.67239 173.779022 
L 339.852804 154.680074 
L 340.484252 53.568 
L 340.574459 65.177164 
L 340.935286 165.54026 
L 341.025493 169.285152 
L 341.1157 168.910663 
L 341.296114 167.038217 
L 341.476527 165.914749 
L 341.566734 166.289238 
L 341.837355 170.783108 
L 342.017769 169.659641 
L 342.198182 171.157598 
L 342.288389 171.157598 
L 342.649217 168.536173 
L 342.739424 168.536173 
L 342.919837 172.281065 
L 343.010044 171.532087 
L 343.100251 171.532087 
L 343.280665 169.285152 
L 343.461079 170.03413 
L 343.551285 170.03413 
L 343.731699 168.161684 
L 344.00232 170.408619 
L 344.27294 168.910663 
L 344.363147 169.659641 
L 344.633768 167.412706 
L 344.904389 163.293325 
L 345.084802 164.416793 
L 345.265216 162.544347 
L 345.44563 163.667814 
L 345.535837 163.667814 
L 345.806457 159.548433 
L 345.896664 157.675988 
L 345.986871 158.050477 
L 346.167285 159.922923 
L 346.437905 156.178031 
L 346.708526 159.922923 
L 346.798733 159.173944 
L 346.979147 156.55252 
L 347.069354 156.178031 
L 347.249767 157.301498 
L 347.430181 155.054563 
L 347.520388 152.433139 
L 347.700802 154.305585 
L 348.061629 153.182118 
L 348.512664 158.424966 
L 348.60287 158.424966 
L 348.963698 165.914749 
L 349.053905 165.54026 
L 349.77556 176.400446 
L 349.865767 176.774935 
L 349.955974 178.647381 
L 350.046181 178.272892 
L 350.226594 176.400446 
L 350.316801 176.400446 
L 350.497215 178.647381 
L 350.767836 173.030043 
L 351.038456 174.902489 
L 351.21887 171.532087 
L 351.399284 169.659641 
L 351.669904 171.532087 
L 351.850318 170.03413 
L 351.940525 170.783108 
L 352.211146 175.276978 
L 352.301352 175.276978 
L 352.481766 177.149424 
L 352.752387 183.890229 
L 352.842594 183.890229 
L 352.932801 183.141251 
L 353.293628 187.635121 
L 353.383835 186.886142 
L 353.744662 189.882056 
L 354.015283 187.635121 
L 354.285904 190.256545 
L 354.466317 189.133077 
L 354.646731 191.380012 
L 354.827145 198.120817 
L 355.007559 191.005523 
L 355.278179 158.424966 
L 355.729214 79.407752 
L 355.909627 119.103604 
L 356.270455 187.635121 
L 356.360662 190.256545 
L 356.450869 189.882056 
L 356.541076 189.507567 
L 356.721489 186.137164 
L 356.811696 187.260632 
L 357.082317 193.252458 
L 357.262731 192.128991 
L 357.352937 192.128991 
L 357.443144 191.754502 
L 357.623558 192.877969 
L 357.713765 192.50348 
L 358.074592 197.371839 
L 358.164799 197.746328 
L 358.345213 195.124904 
L 358.525627 197.746328 
L 358.976661 192.877969 
L 359.157075 196.622861 
L 359.517902 194.375926 
L 359.608109 195.124904 
L 359.87873 192.128991 
L 360.149351 193.252458 
L 360.239557 194.375926 
L 360.419971 192.50348 
L 360.600385 190.256545 
L 360.690592 190.631034 
L 360.780799 192.50348 
L 361.231833 185.013697 
L 361.32204 185.388186 
L 361.412247 184.639207 
L 361.502454 185.013697 
L 361.592661 183.141251 
L 361.773074 183.890229 
L 361.863281 183.890229 
L 362.494729 178.272892 
L 362.675143 176.774935 
L 362.855557 180.145337 
L 363.035971 177.149424 
L 363.126177 177.898402 
L 363.216384 177.523913 
L 363.396798 175.276978 
L 363.847832 179.770848 
L 364.118453 186.137164 
L 364.298867 185.013697 
L 364.389074 185.762675 
L 364.930315 201.49122 
L 365.110729 215.347319 
L 365.65197 191.754502 
L 365.832384 191.754502 
L 366.193211 194.375926 
L 366.463832 190.256545 
L 366.644246 191.380012 
L 366.734452 190.631034 
L 366.914866 186.886142 
L 367.365901 191.380012 
L 367.456108 190.631034 
L 368.087556 198.869796 
L 368.358176 205.98509 
L 368.53859 204.861622 
L 368.719004 207.108557 
L 368.989624 210.104471 
L 369.170038 207.857536 
L 369.440659 210.104471 
L 369.621073 209.729981 
L 369.711279 210.47896 
L 369.9819 222.837102 
L 370.072107 220.964656 
L 370.252521 205.610601 
L 370.523141 163.667814 
L 370.793762 107.49444 
L 370.883969 110.490353 
L 371.42521 212.725895 
L 371.515417 212.351406 
L 371.605624 214.223851 
L 371.695831 213.474873 
L 371.876244 210.853449 
L 371.966451 210.47896 
L 372.146865 215.347319 
L 372.237072 215.721808 
L 372.327279 214.598341 
L 372.417486 214.97283 
L 372.688106 219.841189 
L 373.048934 215.347319 
L 373.139141 217.594254 
L 373.409761 214.97283 
L 373.499968 216.096297 
L 373.590175 215.721808 
L 373.770589 218.717721 
L 373.860796 218.343232 
L 374.041209 216.470786 
L 374.131416 216.470786 
L 374.31183 217.219765 
L 374.402037 216.845276 
L 374.582451 214.223851 
L 374.672658 214.598341 
L 374.762864 214.97283 
L 374.853071 216.096297 
L 375.033485 213.849362 
L 375.123692 212.725895 
L 375.304106 213.474873 
L 375.574726 210.47896 
L 375.75514 208.981003 
L 375.935554 210.47896 
L 376.296381 208.232025 
L 376.476795 210.104471 
L 376.657209 205.98509 
L 376.747416 206.734068 
L 376.837623 206.734068 
L 376.927829 207.857536 
L 377.018036 207.483046 
L 377.108243 206.359579 
L 377.288657 202.240198 
L 377.559278 202.240198 
L 377.649484 201.865709 
L 377.739691 200.742241 
L 377.920105 198.120817 
L 378.100519 200.367752 
L 378.190726 199.993263 
L 378.371139 198.495307 
L 378.461346 197.746328 
L 378.731967 199.244285 
L 379.002588 202.240198 
L 379.273208 210.104471 
L 379.453622 207.857536 
L 379.724243 212.351406 
L 379.814449 211.976916 
L 380.08507 211.227938 
L 380.265484 213.100384 
L 380.355691 213.474873 
L 380.536104 211.602427 
L 380.626311 211.227938 
L 380.716518 211.976916 
L 381.077346 206.359579 
L 381.347966 208.981003 
L 381.618587 202.240198 
L 381.708794 202.989176 
L 381.799001 206.359579 
L 381.889208 205.610601 
L 382.069621 205.236111 
L 382.159828 205.236111 
L 382.340242 206.734068 
L 382.701069 213.100384 
L 382.881483 216.096297 
L 383.061897 218.343232 
L 383.152104 217.594254 
L 383.332518 221.339146 
L 383.512931 226.207505 
L 383.783552 223.211591 
L 383.873759 222.837102 
L 384.144379 223.58608 
L 384.234586 222.462613 
L 384.415 225.084037 
L 384.685621 236.693201 
L 384.866035 232.57382 
L 384.956241 228.45444 
L 385.136655 204.487133 
L 385.58769 120.227071 
L 385.768103 153.556607 
L 386.128931 223.211591 
L 386.309345 224.709548 
L 386.579965 222.462613 
L 386.670172 222.088124 
L 386.760379 223.211591 
L 386.850586 222.837102 
L 387.391827 235.195245 
L 387.662448 231.075864 
L 387.752655 230.701375 
L 387.933068 233.697288 
L 388.113482 230.701375 
L 388.203689 228.07995 
L 388.47431 232.57382 
L 388.654723 227.330972 
L 388.74493 227.705461 
L 389.105758 237.44218 
L 389.646999 232.94831 
L 389.827413 236.318712 
L 389.91762 235.569734 
L 390.007826 235.195245 
L 390.18824 236.318712 
L 390.278447 234.820755 
L 390.458861 228.828929 
L 390.639275 230.326885 
L 390.819688 228.07995 
L 391.090309 229.577907 
L 391.270723 226.956483 
L 391.36093 227.705461 
L 391.451136 229.577907 
L 391.541343 229.203418 
L 391.992378 217.594254 
L 392.082585 217.968743 
L 392.172791 218.343232 
L 392.262998 219.4667 
L 392.443412 217.968743 
L 392.533619 218.717721 
L 392.714033 221.713635 
L 392.984653 219.092211 
L 393.345481 222.462613 
L 393.435688 222.088124 
L 393.525895 222.088124 
L 393.616101 221.713635 
L 394.698584 234.446266 
L 394.969205 241.187071 
L 395.149618 238.565647 
L 395.420239 241.56156 
L 395.69086 236.693201 
L 395.96148 238.565647 
L 396.051687 238.191158 
L 396.412515 231.450353 
L 396.592928 233.697288 
L 396.773342 231.450353 
L 397.043963 243.059517 
L 397.13417 242.310539 
L 397.224376 241.187071 
L 397.314583 242.685028 
L 397.585204 250.5493 
L 397.675411 252.421746 
L 397.855825 250.923789 
L 398.126445 255.792149 
L 398.306859 252.796235 
L 398.487273 255.417659 
L 398.487273 255.417659 
" clip-path="url(#p0c7b06c3ee)" style="fill: none; stroke: #696969; stroke-width: 1.5; stroke-linecap: square"/>
   </g>
   <g id="line2d_15">
    <defs>
     <path id="m70ae16e860" d="M 0 -3 
L -0.673542 -0.927051 
L -2.85317 -0.927051 
L -1.089814 0.354102 
L -1.763356 2.427051 
L -0 1.145898 
L 1.763356 2.427051 
L 1.089814 0.354102 
L 2.85317 -0.927051 
L 0.673542 -0.927051 
z
" style="stroke: #1f77b4; stroke-linejoin: bevel"/>
    </defs>
    <g clip-path="url(#p0c7b06c3ee)">
     <use xlink:href="#m70ae16e860" x="85.108587" y="73.790415" style="fill-opacity: 0; stroke: #1f77b4; stroke-linejoin: bevel"/>
     <use xlink:href="#m70ae16e860" x="104.683479" y="97.757721" style="fill-opacity: 0; stroke: #1f77b4; stroke-linejoin: bevel"/>
     <use xlink:href="#m70ae16e860" x="123.536716" y="91.016916" style="fill-opacity: 0; stroke: #1f77b4; stroke-linejoin: bevel"/>
     <use xlink:href="#m70ae16e860" x="141.30747" y="125.09543" style="fill-opacity: 0; stroke: #1f77b4; stroke-linejoin: bevel"/>
     <use xlink:href="#m70ae16e860" x="158.988018" y="116.10769" style="fill-opacity: 0; stroke: #1f77b4; stroke-linejoin: bevel"/>
     <use xlink:href="#m70ae16e860" x="175.766497" y="98.132211" style="fill-opacity: 0; stroke: #1f77b4; stroke-linejoin: bevel"/>
     <use xlink:href="#m70ae16e860" x="192.544976" y="103.00057" style="fill-opacity: 0; stroke: #1f77b4; stroke-linejoin: bevel"/>
     <use xlink:href="#m70ae16e860" x="209.143041" y="102.251591" style="fill-opacity: 0; stroke: #1f77b4; stroke-linejoin: bevel"/>
     <use xlink:href="#m70ae16e860" x="226.282347" y="123.222985" style="fill-opacity: 0; stroke: #1f77b4; stroke-linejoin: bevel"/>
     <use xlink:href="#m70ae16e860" x="243.331447" y="155.429053" style="fill-opacity: 0; stroke: #1f77b4; stroke-linejoin: bevel"/>
     <use xlink:href="#m70ae16e860" x="260.019719" y="164.042303" style="fill-opacity: 0; stroke: #1f77b4; stroke-linejoin: bevel"/>
     <use xlink:href="#m70ae16e860" x="276.798197" y="125.46992" style="fill-opacity: 0; stroke: #1f77b4; stroke-linejoin: bevel"/>
     <use xlink:href="#m70ae16e860" x="293.125642" y="82.403666" style="fill-opacity: 0; stroke: #1f77b4; stroke-linejoin: bevel"/>
     <use xlink:href="#m70ae16e860" x="309.092259" y="63.304718" style="fill-opacity: 0; stroke: #1f77b4; stroke-linejoin: bevel"/>
     <use xlink:href="#m70ae16e860" x="324.427428" y="70.045523" style="fill-opacity: 0; stroke: #1f77b4; stroke-linejoin: bevel"/>
     <use xlink:href="#m70ae16e860" x="340.394045" y="56.938402" style="fill-opacity: 0; stroke: #1f77b4; stroke-linejoin: bevel"/>
     <use xlink:href="#m70ae16e860" x="355.639007" y="82.778155" style="fill-opacity: 0; stroke: #1f77b4; stroke-linejoin: bevel"/>
     <use xlink:href="#m70ae16e860" x="370.793762" y="107.49444" style="fill-opacity: 0; stroke: #1f77b4; stroke-linejoin: bevel"/>
     <use xlink:href="#m70ae16e860" x="385.58769" y="120.227071" style="fill-opacity: 0; stroke: #1f77b4; stroke-linejoin: bevel"/>
    </g>
   </g>
   <g id="patch_3">
    <path d="M 57.6 307.584 
L 57.6 41.472 
" style="fill: none; stroke: #000000; stroke-width: 0.8; stroke-linejoin: miter; stroke-linecap: square"/>
   </g>
   <g id="patch_4">
    <path d="M 57.6 307.584 
L 414.72 307.584 
" style="fill: none; stroke: #000000; stroke-width: 0.8; stroke-linejoin: miter; stroke-linecap: square"/>
   </g>
   <g id="text_15">
    <!-- scipy.misc.electrocardiogram() -->
    <g transform="translate(144.145312 35.472) scale(0.12 -0.12)">
     <defs>
      <path id="DejaVuSans-63" d="M 3122 3366 
L 3122 2828 
Q 2878 2963 2633 3030 
Q 2388 3097 2138 3097 
Q 1578 3097 1268 2742 
Q 959 2388 959 1747 
Q 959 1106 1268 751 
Q 1578 397 2138 397 
Q 2388 397 2633 464 
Q 2878 531 3122 666 
L 3122 134 
Q 2881 22 2623 -34 
Q 2366 -91 2075 -91 
Q 1284 -91 818 406 
Q 353 903 353 1747 
Q 353 2603 823 3093 
Q 1294 3584 2113 3584 
Q 2378 3584 2631 3529 
Q 2884 3475 3122 3366 
z
" transform="scale(0.015625)"/>
      <path id="DejaVuSans-70" d="M 1159 525 
L 1159 -1331 
L 581 -1331 
L 581 3500 
L 1159 3500 
L 1159 2969 
Q 1341 3281 1617 3432 
Q 1894 3584 2278 3584 
Q 2916 3584 3314 3078 
Q 3713 2572 3713 1747 
Q 3713 922 3314 415 
Q 2916 -91 2278 -91 
Q 1894 -91 1617 61 
Q 1341 213 1159 525 
z
M 3116 1747 
Q 3116 2381 2855 2742 
Q 2594 3103 2138 3103 
Q 1681 3103 1420 2742 
Q 1159 2381 1159 1747 
Q 1159 1113 1420 752 
Q 1681 391 2138 391 
Q 2594 391 2855 752 
Q 3116 1113 3116 1747 
z
" transform="scale(0.015625)"/>
      <path id="DejaVuSans-79" d="M 2059 -325 
Q 1816 -950 1584 -1140 
Q 1353 -1331 966 -1331 
L 506 -1331 
L 506 -850 
L 844 -850 
Q 1081 -850 1212 -737 
Q 1344 -625 1503 -206 
L 1606 56 
L 191 3500 
L 800 3500 
L 1894 763 
L 2988 3500 
L 3597 3500 
L 2059 -325 
z
" transform="scale(0.015625)"/>
      <path id="DejaVuSans-6c" d="M 603 4863 
L 1178 4863 
L 1178 0 
L 603 0 
L 603 4863 
z
" transform="scale(0.015625)"/>
      <path id="DejaVuSans-74" d="M 1172 4494 
L 1172 3500 
L 2356 3500 
L 2356 3053 
L 1172 3053 
L 1172 1153 
Q 1172 725 1289 603 
Q 1406 481 1766 481 
L 2356 481 
L 2356 0 
L 1766 0 
Q 1100 0 847 248 
Q 594 497 594 1153 
L 594 3053 
L 172 3053 
L 172 3500 
L 594 3500 
L 594 4494 
L 1172 4494 
z
" transform="scale(0.015625)"/>
      <path id="DejaVuSans-72" d="M 2631 2963 
Q 2534 3019 2420 3045 
Q 2306 3072 2169 3072 
Q 1681 3072 1420 2755 
Q 1159 2438 1159 1844 
L 1159 0 
L 581 0 
L 581 3500 
L 1159 3500 
L 1159 2956 
Q 1341 3275 1631 3429 
Q 1922 3584 2338 3584 
Q 2397 3584 2469 3576 
Q 2541 3569 2628 3553 
L 2631 2963 
z
" transform="scale(0.015625)"/>
      <path id="DejaVuSans-6f" d="M 1959 3097 
Q 1497 3097 1228 2736 
Q 959 2375 959 1747 
Q 959 1119 1226 758 
Q 1494 397 1959 397 
Q 2419 397 2687 759 
Q 2956 1122 2956 1747 
Q 2956 2369 2687 2733 
Q 2419 3097 1959 3097 
z
M 1959 3584 
Q 2709 3584 3137 3096 
Q 3566 2609 3566 1747 
Q 3566 888 3137 398 
Q 2709 -91 1959 -91 
Q 1206 -91 779 398 
Q 353 888 353 1747 
Q 353 2609 779 3096 
Q 1206 3584 1959 3584 
z
" transform="scale(0.015625)"/>
      <path id="DejaVuSans-61" d="M 2194 1759 
Q 1497 1759 1228 1600 
Q 959 1441 959 1056 
Q 959 750 1161 570 
Q 1363 391 1709 391 
Q 2188 391 2477 730 
Q 2766 1069 2766 1631 
L 2766 1759 
L 2194 1759 
z
M 3341 1997 
L 3341 0 
L 2766 0 
L 2766 531 
Q 2569 213 2275 61 
Q 1981 -91 1556 -91 
Q 1019 -91 701 211 
Q 384 513 384 1019 
Q 384 1609 779 1909 
Q 1175 2209 1959 2209 
L 2766 2209 
L 2766 2266 
Q 2766 2663 2505 2880 
Q 2244 3097 1772 3097 
Q 1472 3097 1187 3025 
Q 903 2953 641 2809 
L 641 3341 
Q 956 3463 1253 3523 
Q 1550 3584 1831 3584 
Q 2591 3584 2966 3190 
Q 3341 2797 3341 1997 
z
" transform="scale(0.015625)"/>
      <path id="DejaVuSans-64" d="M 2906 2969 
L 2906 4863 
L 3481 4863 
L 3481 0 
L 2906 0 
L 2906 525 
Q 2725 213 2448 61 
Q 2172 -91 1784 -91 
Q 1150 -91 751 415 
Q 353 922 353 1747 
Q 353 2572 751 3078 
Q 1150 3584 1784 3584 
Q 2172 3584 2448 3432 
Q 2725 3281 2906 2969 
z
M 947 1747 
Q 947 1113 1208 752 
Q 1469 391 1925 391 
Q 2381 391 2643 752 
Q 2906 1113 2906 1747 
Q 2906 2381 2643 2742 
Q 2381 3103 1925 3103 
Q 1469 3103 1208 2742 
Q 947 2381 947 1747 
z
" transform="scale(0.015625)"/>
      <path id="DejaVuSans-67" d="M 2906 1791 
Q 2906 2416 2648 2759 
Q 2391 3103 1925 3103 
Q 1463 3103 1205 2759 
Q 947 2416 947 1791 
Q 947 1169 1205 825 
Q 1463 481 1925 481 
Q 2391 481 2648 825 
Q 2906 1169 2906 1791 
z
M 3481 434 
Q 3481 -459 3084 -895 
Q 2688 -1331 1869 -1331 
Q 1566 -1331 1297 -1286 
Q 1028 -1241 775 -1147 
L 775 -588 
Q 1028 -725 1275 -790 
Q 1522 -856 1778 -856 
Q 2344 -856 2625 -561 
Q 2906 -266 2906 331 
L 2906 616 
Q 2728 306 2450 153 
Q 2172 0 1784 0 
Q 1141 0 747 490 
Q 353 981 353 1791 
Q 353 2603 747 3093 
Q 1141 3584 1784 3584 
Q 2172 3584 2450 3431 
Q 2728 3278 2906 2969 
L 2906 3500 
L 3481 3500 
L 3481 434 
z
" transform="scale(0.015625)"/>
     </defs>
     <use xlink:href="#DejaVuSans-73"/>
     <use xlink:href="#DejaVuSans-63" x="52.099609"/>
     <use xlink:href="#DejaVuSans-69" x="107.080078"/>
     <use xlink:href="#DejaVuSans-70" x="134.863281"/>
     <use xlink:href="#DejaVuSans-79" x="198.339844"/>
     <use xlink:href="#DejaVuSans-2e" x="243.269531"/>
     <use xlink:href="#DejaVuSans-6d" x="275.056641"/>
     <use xlink:href="#DejaVuSans-69" x="372.46875"/>
     <use xlink:href="#DejaVuSans-73" x="400.251953"/>
     <use xlink:href="#DejaVuSans-63" x="452.351562"/>
     <use xlink:href="#DejaVuSans-2e" x="507.332031"/>
     <use xlink:href="#DejaVuSans-65" x="539.119141"/>
     <use xlink:href="#DejaVuSans-6c" x="600.642578"/>
     <use xlink:href="#DejaVuSans-65" x="628.425781"/>
     <use xlink:href="#DejaVuSans-63" x="689.949219"/>
     <use xlink:href="#DejaVuSans-74" x="744.929688"/>
     <use xlink:href="#DejaVuSans-72" x="784.138672"/>
     <use xlink:href="#DejaVuSans-6f" x="823.001953"/>
     <use xlink:href="#DejaVuSans-63" x="884.183594"/>
     <use xlink:href="#DejaVuSans-61" x="939.164062"/>
     <use xlink:href="#DejaVuSans-72" x="1000.443359"/>
     <use xlink:href="#DejaVuSans-64" x="1039.806641"/>
     <use xlink:href="#DejaVuSans-69" x="1103.283203"/>
     <use xlink:href="#DejaVuSans-6f" x="1131.066406"/>
     <use xlink:href="#DejaVuSans-67" x="1192.248047"/>
     <use xlink:href="#DejaVuSans-72" x="1255.724609"/>
     <use xlink:href="#DejaVuSans-61" x="1296.837891"/>
     <use xlink:href="#DejaVuSans-6d" x="1358.117188"/>
     <use xlink:href="#DejaVuSans-28" x="1455.529297"/>
     <use xlink:href="#DejaVuSans-29" x="1494.542969"/>
    </g>
   </g>
  </g>
 </g>
 <defs>
  <clipPath id="p0c7b06c3ee">
   <rect x="57.6" y="41.472" width="357.12" height="266.112"/>
  </clipPath>
 </defs>
</svg>
